<?xml version="1.0" standalone="no"?>
<!DOCTYPE svg PUBLIC "-//W3C//DTD SVG 20010904//EN"
 "http://www.w3.org/TR/2001/REC-SVG-20010904/DTD/svg10.dtd">
<svg version="1.0" xmlns="http://www.w3.org/2000/svg"
 width="740.000000pt" height="846.000000pt" viewBox="0 0 740.000000 846.000000"
 preserveAspectRatio="xMidYMid meet">

<g transform="translate(0.000000,846.000000) scale(0.100000,-0.100000)"
fill="#000000" stroke="none">
<path d="M3793 6585 c-192 -35 -363 -118 -491 -239 -92 -88 -128 -137 -190
-261 -103 -205 -146 -413 -124 -590 13 -101 57 -236 97 -297 14 -21 25 -39 25
-42 0 -2 -19 -15 -42 -29 -92 -54 -146 -141 -154 -245 -3 -40 -1 -49 4 -32 22
65 71 147 114 193 26 28 51 48 54 44 4 -4 2 -12 -4 -19 -5 -7 -17 -31 -26 -52
-16 -38 -14 -37 45 28 70 76 91 76 58 0 -12 -27 -28 -71 -35 -99 -22 -80 -16
-260 7 -224 6 10 9 9 14 -6 17 -55 45 -91 86 -112 72 -38 74 -36 72 64 l-2 88
13 -65 c20 -104 48 -146 105 -156 20 -4 42 -11 49 -17 23 -18 32 12 32 111 0
88 -2 96 -31 138 -49 72 -87 164 -101 243 -10 59 -10 75 0 79 6 2 12 10 12 18
0 8 4 14 10 14 5 0 -8 33 -30 73 -39 73 -80 182 -80 214 0 9 12 -6 26 -35 26
-53 40 -63 50 -37 4 8 10 13 14 10 5 -3 14 -3 22 0 10 4 13 38 14 148 1 166
28 305 89 453 33 80 110 224 120 224 2 0 -10 -39 -26 -87 -70 -207 -90 -427
-48 -537 11 -31 23 -58 27 -60 4 -2 7 73 7 167 1 121 6 199 18 262 18 92 73
284 85 297 4 4 4 -48 -1 -115 -4 -67 -6 -174 -2 -238 l5 -115 -34 -17 c-19 -9
-40 -26 -46 -37 -11 -21 -10 -21 36 -19 51 3 54 0 67 -68 6 -31 5 -33 -21 -33
-15 -1 -38 -8 -52 -16 -17 -11 -19 -13 -5 -9 11 4 37 9 58 12 43 6 50 -12 17
-42 -25 -23 -26 -47 -2 -68 36 -33 82 -15 82 31 0 14 6 30 14 36 12 9 12 21
-4 81 -15 58 -16 71 -4 73 18 4 18 11 -3 35 -15 16 -18 39 -17 151 0 122 24
320 44 370 5 13 9 -42 10 -144 1 -174 18 -350 46 -481 l17 -78 31 6 c17 4 59
7 94 7 l62 1 -4 145 c-5 134 -4 138 5 55 5 -49 12 -114 15 -142 4 -37 10 -53
20 -53 17 0 17 -3 4 175 -13 178 -27 306 -46 423 -9 52 -14 96 -11 98 8 8 87
-223 112 -326 38 -156 40 -173 14 -185 -12 -5 -29 -20 -37 -32 -14 -23 -14
-23 27 -23 l41 0 0 -50 c0 -47 -2 -51 -32 -65 -24 -11 -26 -13 -8 -9 42 11 45
10 42 -13 -4 -30 11 -29 28 2 7 14 17 25 21 25 23 0 59 -22 59 -35 0 -23 81
-20 111 4 22 17 25 29 30 128 5 95 6 100 9 43 2 -36 4 -94 5 -130 l0 -65 33 0
c31 0 32 -1 32 -45 0 -40 -24 -144 -45 -192 -16 -40 29 -12 63 38 12 18 13 18
7 -3 -3 -13 -8 -33 -12 -45 -6 -20 -4 -21 35 -15 40 5 42 4 42 -20 0 -36 -60
-93 -98 -93 l-29 0 -6 -77 c-3 -43 -12 -98 -20 -123 -8 -25 -22 -99 -32 -165
-9 -66 -19 -135 -22 -152 -7 -47 10 -42 69 19 53 54 55 51 22 -31 -18 -43 -19
-41 15 -41 59 0 131 74 154 158 12 43 28 59 21 20 -9 -48 25 37 37 92 16 76 6
285 -18 378 -23 84 -12 89 33 14 42 -69 71 -162 84 -268 6 -49 15 -111 19
-139 l7 -50 12 53 c29 129 4 275 -77 435 -49 98 -49 99 -34 135 23 54 35 267
22 400 -22 243 -90 413 -222 558 -180 197 -486 291 -774 239z m435 -590 c37
-102 77 -253 69 -262 -10 -10 -37 18 -37 39 0 16 -42 198 -66 288 -13 49 5 13
34 -65z m90 -387 l3 -57 -31 11 c-29 9 -31 14 -26 41 3 16 6 38 6 49 0 14 6
19 23 16 19 -3 22 -10 25 -60z"/>
<path d="M5980 6336 c0 -2 8 -10 18 -17 15 -13 16 -12 3 4 -13 16 -21 21 -21
13z"/>
<path d="M6045 6280 c10 -11 20 -20 23 -20 3 0 -3 9 -13 20 -10 11 -20 20 -23
20 -3 0 3 -9 13 -20z"/>
<path d="M1930 6110 c-24 -24 -25 -38 -4 -68 28 -41 94 -22 94 28 0 55 -52 78
-90 40z"/>
<path d="M2177 6112 c-33 -36 -8 -92 40 -92 25 0 53 30 53 57 0 46 -62 69 -93
35z"/>
<path d="M2426 6114 c-34 -34 -9 -94 39 -94 24 0 55 33 55 57 0 20 -38 53 -59
53 -11 0 -27 -7 -35 -16z"/>
<path d="M5594 6101 c-52 -22 -87 -111 -45 -111 11 0 23 9 26 20 29 92 169 71
169 -25 0 -48 -35 -80 -98 -89 l-46 -7 0 -45 c0 -37 3 -44 19 -44 14 0 21 8
23 26 3 23 10 29 51 39 27 7 58 21 69 32 43 43 40 136 -6 181 -20 21 -37 26
-83 29 -32 1 -68 -1 -79 -6z"/>
<path d="M5591 5726 c-18 -22 4 -58 32 -54 31 4 32 62 1 66 -11 2 -26 -4 -33
-12z"/>
<path d="M6059 5533 c-13 -16 -12 -17 4 -4 16 13 21 21 13 21 -2 0 -10 -8 -17
-17z"/>
<path d="M4237 5512 c-22 -25 -21 -45 3 -67 29 -27 74 -10 78 28 6 53 -46 77
-81 39z"/>
<path d="M4032 5190 c0 -14 2 -19 5 -12 2 6 2 18 0 25 -3 6 -5 1 -5 -13z"/>
<path d="M3918 4963 c6 -2 18 -2 25 0 6 3 1 5 -13 5 -14 0 -19 -2 -12 -5z"/>
<path d="M3378 3901 c-38 -34 -37 -12 -17 -324 l12 -198 186 2 c102 1 195 -2
206 -6 90 -35 65 -123 -42 -150 l-47 -12 99 -7 c120 -9 229 -30 261 -51 13 -8
25 -15 27 -15 2 0 4 21 5 48 1 26 7 101 12 167 9 116 24 414 23 484 0 26 -8
41 -31 63 l-32 28 -315 0 -315 0 -32 -29z"/>
<path d="M4131 3404 c0 -11 3 -14 6 -6 3 7 2 16 -1 19 -3 4 -6 -2 -5 -13z"/>
<path d="M5239 3373 l-34 -38 38 34 c34 33 42 41 34 41 -2 0 -19 -17 -38 -37z"/>
<path d="M4842 3049 c-6 -30 -14 -74 -17 -99 -2 -25 4 -4 15 45 11 50 18 94
17 99 -2 5 -8 -15 -15 -45z"/>
<path d="M2382 3060 c0 -19 2 -27 5 -17 2 9 2 25 0 35 -3 9 -5 1 -5 -18z"/>
<path d="M4046 3043 c-4 -5 -125 -8 -269 -8 -243 -1 -266 -2 -317 -22 -66 -26
-52 -27 107 -12 80 8 136 8 195 0 46 -6 130 -11 187 -12 l104 -2 1 32 c1 17 1
31 0 31 0 0 -4 -3 -8 -7z"/>
<path d="M4122 3000 c0 -19 2 -27 5 -17 2 9 2 25 0 35 -3 9 -5 1 -5 -18z"/>
<path d="M2392 2955 c0 -33 3 -85 8 -115 l7 -55 1 55 c0 30 -4 82 -8 115 l-7
60 -1 -60z"/>
<path d="M2050 2945 c19 -19 36 -35 39 -35 3 0 -10 16 -29 35 -19 19 -36 35
-39 35 -3 0 10 -16 29 -35z"/>
<path d="M4038 2833 c7 -3 16 -2 19 1 4 3 -2 6 -13 5 -11 0 -14 -3 -6 -6z"/>
<path d="M3600 2821 c-19 -4 28 -7 105 -7 85 1 124 4 100 8 -49 8 -157 8 -205
-1z"/>
<path d="M3883 2823 c15 -2 39 -2 55 0 15 2 2 4 -28 4 -30 0 -43 -2 -27 -4z"/>
<path d="M2413 2700 c0 -47 2 -66 4 -42 2 23 2 61 0 85 -2 23 -4 4 -4 -43z"/>
<path d="M4792 2750 c0 -14 2 -19 5 -12 2 6 2 18 0 25 -3 6 -5 1 -5 -13z"/>
<path d="M4015 2731 c-3 -5 -2 -12 3 -15 5 -3 9 1 9 9 0 17 -3 19 -12 6z"/>
<path d="M4776 2684 c-4 -14 -5 -28 -3 -31 3 -2 8 8 11 23 4 14 5 28 3 31 -3
2 -8 -8 -11 -23z"/>
<path d="M4742 2654 c13 -25 24 -41 26 -36 3 9 -36 82 -44 82 -2 0 6 -21 18
-46z"/>
<path d="M3898 2683 c7 -3 16 -2 19 1 4 3 -2 6 -13 5 -11 0 -14 -3 -6 -6z"/>
<path d="M3838 2673 c6 -2 18 -2 25 0 6 3 1 5 -13 5 -14 0 -19 -2 -12 -5z"/>
<path d="M4123 2625 c0 -33 2 -45 4 -27 2 18 2 45 0 60 -2 15 -4 0 -4 -33z"/>
<path d="M1882 2570 c0 -19 2 -27 5 -17 2 9 2 25 0 35 -3 9 -5 1 -5 -18z"/>
<path d="M4133 2425 c0 -27 2 -38 4 -22 2 15 2 37 0 50 -2 12 -4 0 -4 -28z"/>
<path d="M4142 2330 c0 -19 2 -27 5 -17 2 9 2 25 0 35 -3 9 -5 1 -5 -18z"/>
<path d="M3140 2305 c13 -14 26 -25 28 -25 3 0 -5 11 -18 25 -13 14 -26 25
-28 25 -3 0 5 -11 18 -25z"/>
<path d="M3225 2210 c27 -27 51 -50 54 -50 3 0 -17 23 -44 50 -27 28 -51 50
-54 50 -3 0 17 -22 44 -50z"/>
<path d="M4152 2240 c0 -14 2 -19 5 -12 2 6 2 18 0 25 -3 6 -5 1 -5 -13z"/>
<path d="M4162 2160 c0 -14 2 -19 5 -12 2 6 2 18 0 25 -3 6 -5 1 -5 -13z"/>
<path d="M4181 2044 c0 -11 3 -14 6 -6 3 7 2 16 -1 19 -3 4 -6 -2 -5 -13z"/>
<path d="M3500 1946 c0 -2 8 -10 18 -17 15 -13 16 -12 3 4 -13 16 -21 21 -21
13z"/>
<path d="M3031 1873 c81 -133 223 -305 365 -443 90 -88 89 -85 -22 31 -136
141 -215 238 -299 363 -57 86 -87 119 -44 49z"/>
<path d="M3556 1897 c3 -10 9 -15 12 -12 3 3 0 11 -7 18 -10 9 -11 8 -5 -6z"/>
<path d="M4221 1884 c0 -11 3 -14 6 -6 3 7 2 16 -1 19 -3 4 -6 -2 -5 -13z"/>
<path d="M3580 1876 c0 -2 8 -10 18 -17 15 -13 16 -12 3 4 -13 16 -21 21 -21
13z"/>
<path d="M3645 1820 c10 -11 20 -20 23 -20 3 0 -3 9 -13 20 -10 11 -20 20 -23
20 -3 0 3 -9 13 -20z"/>
<path d="M2870 1810 c-6 -11 -8 -20 -6 -20 3 0 10 9 16 20 6 11 8 20 6 20 -3
0 -10 -9 -16 -20z"/>
<path d="M3680 1796 c0 -7 88 -75 190 -144 98 -67 110 -75 110 -69 0 3 -46 37
-102 76 -57 39 -124 87 -150 107 -27 20 -48 33 -48 30z"/>
<path d="M2709 1563 c-13 -16 -12 -17 4 -4 9 7 17 15 17 17 0 8 -8 3 -21 -13z"/>
<path d="M3990 1575 c0 -6 160 -100 223 -130 66 -32 50 -21 -97 65 -118 70
-126 74 -126 65z"/>
<path d="M4370 1556 c0 -2 8 -10 18 -17 15 -13 16 -12 3 4 -13 16 -21 21 -21
13z"/>
<path d="M2639 1473 c-13 -16 -12 -17 4 -4 16 13 21 21 13 21 -2 0 -10 -8 -17
-17z"/>
<path d="M2599 1423 c-13 -16 -12 -17 4 -4 9 7 17 15 17 17 0 8 -8 3 -21 -13z"/>
<path d="M2569 1383 c-13 -16 -12 -17 4 -4 16 13 21 21 13 21 -2 0 -10 -8 -17
-17z"/>
<path d="M2501 1294 c0 -11 3 -14 6 -6 3 7 2 16 -1 19 -3 4 -6 -2 -5 -13z"/>
<path d="M4614 1296 c11 -9 24 -16 30 -16 12 0 7 5 -24 19 -24 11 -24 11 -6
-3z"/>
<path d="M4761 1244 c0 -11 3 -14 6 -6 3 7 2 16 -1 19 -3 4 -6 -2 -5 -13z"/>
<path d="M4771 1204 c0 -11 3 -14 6 -6 3 7 2 16 -1 19 -3 4 -6 -2 -5 -13z"/>
<path d="M2493 1165 c0 -22 2 -30 4 -17 2 12 2 30 0 40 -3 9 -5 -1 -4 -23z"/>
<path d="M1895 1000 c-324 -3 488 -5 1805 -5 1377 0 2089 2 1675 6 -825 7
-2613 7 -3480 -1z"/>
</g>
</svg>
